# ProBuilder 5.2.3
# https://unity3d.com/unity/features/worldbuilding/probuilder
# 05/12/2024 07:27:44

mtllib ./spinBase.mtl
o spinBase

g Cone
v -0.5 -0.25 0
v -0.4960574 -0.25 0.06266659
v 0 0.25 0
v 0 -0.25 0
v -0.4842916 -0.25 0.1243449
v -0.4648882 -0.25 0.1840622
v -0.4381534 -0.25 0.2408768
v -0.4045085 -0.25 0.2938926
v -0.3644843 -0.25 0.3422736
v -0.318712 -0.25 0.3852566
v -0.2679135 -0.25 0.422164
v -0.2128896 -0.25 0.4524136
v -0.1545085 -0.25 0.4755282
v -0.09369063 -0.25 0.4911436
v -0.03139526 -0.25 0.4990134
v 0.03139523 -0.25 0.4990134
v 0.09369066 -0.25 0.4911436
v 0.1545085 -0.25 0.4755282
v 0.2128896 -0.25 0.4524136
v 0.2679134 -0.25 0.422164
v 0.3187121 -0.25 0.3852565
v 0.3644843 -0.25 0.3422735
v 0.4045085 -0.25 0.2938926
v 0.4381533 -0.25 0.2408769
v 0.4648882 -0.25 0.1840623
v 0.4842916 -0.25 0.1243449
v 0.4960574 -0.25 0.06266659
v 0.5 -0.25 -5.960464E-08
v 0.4960574 -0.25 -0.06266657
v 0.4842916 -0.25 -0.1243449
v 0.4648882 -0.25 -0.1840623
v 0.4381533 -0.25 -0.2408769
v 0.4045085 -0.25 -0.2938926
v 0.3644843 -0.25 -0.3422735
v 0.3187121 -0.25 -0.3852565
v 0.2679133 -0.25 -0.422164
v 0.2128897 -0.25 -0.4524135
v 0.1545085 -0.25 -0.4755282
v 0.09369045 -0.25 -0.4911437
v 0.03139526 -0.25 -0.4990134
v -0.03139532 -0.25 -0.4990134
v -0.09369045 -0.25 -0.4911437
v -0.1545086 -0.25 -0.4755282
v -0.2128897 -0.25 -0.4524135
v -0.2679133 -0.25 -0.422164
v -0.3187121 -0.25 -0.3852565
v -0.3644843 -0.25 -0.3422736
v -0.4045085 -0.25 -0.2938927
v -0.4381533 -0.25 -0.2408769
v -0.4648882 -0.25 -0.1840623
v -0.4842916 -0.25 -0.1243449
v -0.4960573 -0.25 -0.06266677

vt 0 0
vt 0.125581 0
vt 0.06279036 1.116269
vt -0.5 0
vt -0.4960574 0.06266659
vt -0.4842916 0.1243449
vt -0.4648882 0.1840622
vt -0.4381534 0.2408768
vt -0.4045085 0.2938926
vt -0.3644843 0.3422736
vt -0.318712 0.3852566
vt -0.2679135 0.422164
vt -0.2128896 0.4524136
vt -0.1545085 0.4755282
vt -0.09369063 0.4911436
vt -0.03139526 0.4990134
vt 0.03139523 0.4990134
vt 0.09369066 0.4911436
vt 0.1545085 0.4755282
vt 0.2128896 0.4524136
vt 0.2679134 0.422164
vt 0.3187121 0.3852565
vt 0.3644843 0.3422735
vt 0.4045085 0.2938926
vt 0.4381533 0.2408769
vt 0.4648882 0.1840623
vt 0.4842916 0.1243449
vt 0.4960574 0.06266659
vt 0.5 -5.960464E-08
vt 0.4960574 -0.06266657
vt 0.4842916 -0.1243449
vt 0.4648882 -0.1840623
vt 0.4381533 -0.2408769
vt 0.4045085 -0.2938926
vt 0.3644843 -0.3422735
vt 0.3187121 -0.3852565
vt 0.2679133 -0.422164
vt 0.2128897 -0.4524135
vt 0.1545085 -0.4755282
vt 0.09369045 -0.4911437
vt 0.03139526 -0.4990134
vt -0.03139532 -0.4990134
vt -0.09369045 -0.4911437
vt -0.1545086 -0.4755282
vt -0.2128897 -0.4524135
vt -0.2679133 -0.422164
vt -0.3187121 -0.3852565
vt -0.3644843 -0.3422736
vt -0.4045085 -0.2938927
vt -0.4381533 -0.2408769
vt -0.4648882 -0.1840623
vt -0.4842916 -0.1243449
vt -0.4960573 -0.06266677

vn -0.7071068 0.7071068 -2.703507E-07
vn -0.701531 0.7071068 0.0886241
vn -3.375083E-08 1 -2.86882E-08
vn 0 -1 0
vn -0.6848916 0.7071068 0.1758507
vn -0.6574515 0.7071068 0.2603031
vn -0.6196424 0.7071068 0.3406512
vn -0.5720614 0.7071068 0.4156269
vn -0.5154588 0.7071068 0.4840477
vn -0.4507268 0.7071068 0.5448351
vn -0.3788868 0.7071068 0.59703
vn -0.3010711 0.7071068 0.6398095
vn -0.2185077 0.7071068 0.6724986
vn -0.1324987 0.7071068 0.6945819
vn -0.04439984 0.7071068 0.7057114
vn 0.04439981 0.7071068 0.7057115
vn 0.1324987 0.7071068 0.694582
vn 0.2185078 0.7071068 0.6724986
vn 0.3010713 0.7071068 0.6398094
vn 0.3788868 0.7071068 0.5970299
vn 0.4507269 0.7071068 0.5448351
vn 0.5154585 0.7071068 0.484048
vn 0.5720612 0.7071068 0.4156271
vn 0.6196424 0.7071068 0.3406513
vn 0.6574513 0.7071068 0.2603033
vn 0.6848917 0.7071068 0.1758503
vn 0.7015311 0.7071068 0.08862393
vn 0.7071068 0.7071068 -5.220565E-08
vn 0.7015311 0.7071068 -0.08862398
vn 0.6848917 0.7071068 -0.1758503
vn 0.6574512 0.7071068 -0.2603034
vn 0.6196424 0.7071068 -0.3406513
vn 0.5720615 0.7071068 -0.4156269
vn 0.5154587 0.7071068 -0.4840479
vn 0.4507268 0.7071068 -0.5448352
vn 0.3788869 0.7071068 -0.5970299
vn 0.3010715 0.7071068 -0.6398093
vn 0.218508 0.7071068 -0.6724985
vn 0.1324985 0.7071068 -0.694582
vn 0.04439947 0.7071068 -0.7057115
vn -0.04439951 0.7071068 -0.7057115
vn -0.1324985 0.7071068 -0.694582
vn -0.218508 0.7071068 -0.6724985
vn -0.3010715 0.7071068 -0.6398093
vn -0.3788868 0.7071068 -0.59703
vn -0.4507269 0.7071068 -0.5448351
vn -0.5154587 0.7071068 -0.4840478
vn -0.5720615 0.7071068 -0.4156268
vn -0.6196424 0.7071068 -0.3406512
vn -0.6574513 0.7071068 -0.2603032
vn -0.6848916 0.7071068 -0.1758505
vn -0.701531 0.7071068 -0.08862427

usemtl Lit
f 1/1/1 2/2/2 3/3/3
f 4/1/4 2/5/4 1/4/4
f 2/1/2 5/2/5 3/3/3
f 4/1/4 5/6/4 2/5/4
f 5/1/5 6/2/6 3/3/3
f 4/1/4 6/7/4 5/6/4
f 6/1/6 7/2/7 3/3/3
f 4/1/4 7/8/4 6/7/4
f 7/1/7 8/2/8 3/3/3
f 4/1/4 8/9/4 7/8/4
f 8/1/8 9/2/9 3/3/3
f 4/1/4 9/10/4 8/9/4
f 9/1/9 10/2/10 3/3/3
f 4/1/4 10/11/4 9/10/4
f 10/1/10 11/2/11 3/3/3
f 4/1/4 11/12/4 10/11/4
f 11/1/11 12/2/12 3/3/3
f 4/1/4 12/13/4 11/12/4
f 12/1/12 13/2/13 3/3/3
f 4/1/4 13/14/4 12/13/4
f 13/1/13 14/2/14 3/3/3
f 4/1/4 14/15/4 13/14/4
f 14/1/14 15/2/15 3/3/3
f 4/1/4 15/16/4 14/15/4
f 15/1/15 16/2/16 3/3/3
f 4/1/4 16/17/4 15/16/4
f 16/1/16 17/2/17 3/3/3
f 4/1/4 17/18/4 16/17/4
f 17/1/17 18/2/18 3/3/3
f 4/1/4 18/19/4 17/18/4
f 18/1/18 19/2/19 3/3/3
f 4/1/4 19/20/4 18/19/4
f 19/1/19 20/2/20 3/3/3
f 4/1/4 20/21/4 19/20/4
f 20/1/20 21/2/21 3/3/3
f 4/1/4 21/22/4 20/21/4
f 21/1/21 22/2/22 3/3/3
f 4/1/4 22/23/4 21/22/4
f 22/1/22 23/2/23 3/3/3
f 4/1/4 23/24/4 22/23/4
f 23/1/23 24/2/24 3/3/3
f 4/1/4 24/25/4 23/24/4
f 24/1/24 25/2/25 3/3/3
f 4/1/4 25/26/4 24/25/4
f 25/1/25 26/2/26 3/3/3
f 4/1/4 26/27/4 25/26/4
f 26/1/26 27/2/27 3/3/3
f 4/1/4 27/28/4 26/27/4
f 27/1/27 28/2/28 3/3/3
f 4/1/4 28/29/4 27/28/4
f 28/1/28 29/2/29 3/3/3
f 4/1/4 29/30/4 28/29/4
f 29/1/29 30/2/30 3/3/3
f 4/1/4 30/31/4 29/30/4
f 30/1/30 31/2/31 3/3/3
f 4/1/4 31/32/4 30/31/4
f 31/1/31 32/2/32 3/3/3
f 4/1/4 32/33/4 31/32/4
f 32/1/32 33/2/33 3/3/3
f 4/1/4 33/34/4 32/33/4
f 33/1/33 34/2/34 3/3/3
f 4/1/4 34/35/4 33/34/4
f 34/1/34 35/2/35 3/3/3
f 4/1/4 35/36/4 34/35/4
f 35/1/35 36/2/36 3/3/3
f 4/1/4 36/37/4 35/36/4
f 36/1/36 37/2/37 3/3/3
f 4/1/4 37/38/4 36/37/4
f 37/1/37 38/2/38 3/3/3
f 4/1/4 38/39/4 37/38/4
f 38/1/38 39/2/39 3/3/3
f 4/1/4 39/40/4 38/39/4
f 39/1/39 40/2/40 3/3/3
f 4/1/4 40/41/4 39/40/4
f 40/1/40 41/2/41 3/3/3
f 4/1/4 41/42/4 40/41/4
f 41/1/41 42/2/42 3/3/3
f 4/1/4 42/43/4 41/42/4
f 42/1/42 43/2/43 3/3/3
f 4/1/4 43/44/4 42/43/4
f 43/1/43 44/2/44 3/3/3
f 4/1/4 44/45/4 43/44/4
f 44/1/44 45/2/45 3/3/3
f 4/1/4 45/46/4 44/45/4
f 45/1/45 46/2/46 3/3/3
f 4/1/4 46/47/4 45/46/4
f 46/1/46 47/2/47 3/3/3
f 4/1/4 47/48/4 46/47/4
f 47/1/47 48/2/48 3/3/3
f 4/1/4 48/49/4 47/48/4
f 48/1/48 49/2/49 3/3/3
f 4/1/4 49/50/4 48/49/4
f 49/1/49 50/2/50 3/3/3
f 4/1/4 50/51/4 49/50/4
f 50/1/50 51/2/51 3/3/3
f 4/1/4 51/52/4 50/51/4
f 51/1/51 52/2/52 3/3/3
f 4/1/4 52/53/4 51/52/4
f 52/1/52 1/2/1 3/3/3
f 4/1/4 1/4/4 52/53/4

